<svg width="48" height="57" viewBox="0 0 48 57" fill="none" xmlns="http://www.w3.org/2000/svg">
<path d="M0.419998 15.61C0.651898 15.61 0.84 15.422 0.84 15.19C0.84 14.9581 0.651898 14.77 0.419998 14.77C0.187998 14.77 0 14.9581 0 15.19C0 15.422 0.187998 15.61 0.419998 15.61Z" fill="#675FEB"/>
<path d="M9.72 15.5402C9.952 15.5402 10.14 15.3522 10.14 15.1202C10.14 14.8882 9.952 14.7002 9.72 14.7002C9.4881 14.7002 9.3 14.8882 9.3 15.1202C9.3 15.3522 9.4881 15.5402 9.72 15.5402Z" fill="#675FEB"/>
<path d="M5.0701 18.2802C5.3021 18.2802 5.4901 18.0921 5.4901 17.8602C5.4901 17.6282 5.3021 17.4402 5.0701 17.4402C4.8382 17.4402 4.6501 17.6282 4.6501 17.8602C4.6501 18.0921 4.8382 18.2802 5.0701 18.2802Z" fill="#675FEB"/>
<path d="M0.419998 21.0302C0.651898 21.0302 0.84 20.8421 0.84 20.6102C0.84 20.3782 0.651898 20.1902 0.419998 20.1902C0.187998 20.1902 0 20.3782 0 20.6102C0 20.8421 0.187998 21.0302 0.419998 21.0302Z" fill="#675FEB"/>
<path d="M23.67 13.1602C24.1505 13.1602 24.54 12.7706 24.54 12.2902C24.54 11.8097 24.1505 11.4202 23.67 11.4202C23.1896 11.4202 22.8 11.8097 22.8 12.2902C22.8 12.7706 23.1896 13.1602 23.67 13.1602Z" fill="#675FEB"/>
<path d="M19.0201 15.9102C19.5006 15.9102 19.8901 15.5206 19.8901 15.0402C19.8901 14.5597 19.5006 14.1702 19.0201 14.1702C18.5397 14.1702 18.1501 14.5597 18.1501 15.0402C18.1501 15.5206 18.5397 15.9102 19.0201 15.9102Z" fill="#675FEB"/>
<path d="M14.37 18.6602C14.8505 18.6602 15.24 18.2706 15.24 17.7902C15.24 17.3097 14.8505 16.9202 14.37 16.9202C13.8895 16.9202 13.5 17.3097 13.5 17.7902C13.5 18.2706 13.8895 18.6602 14.37 18.6602Z" fill="#675FEB"/>
<path d="M9.7201 21.4102C10.2007 21.4102 10.5901 21.0206 10.5901 20.5402C10.5901 20.0597 10.2006 19.6702 9.7201 19.6702C9.2396 19.6702 8.8501 20.0597 8.8501 20.5402C8.8501 21.0206 9.2396 21.4102 9.7201 21.4102Z" fill="#675FEB"/>
<path d="M5.0702 24.1502C5.5507 24.1502 5.9402 23.7606 5.9402 23.2802C5.9402 22.7997 5.5507 22.4102 5.0702 22.4102C4.5897 22.4102 4.2002 22.7997 4.2002 23.2802C4.2002 23.7606 4.5897 24.1502 5.0702 24.1502Z" fill="#675FEB"/>
<path d="M0.419998 26.4501C0.651898 26.4501 0.84 26.2621 0.84 26.0301C0.84 25.7981 0.651898 25.6101 0.419998 25.6101C0.187998 25.6101 0 25.7981 0 26.0301C0 26.2621 0.187998 26.4501 0.419998 26.4501Z" fill="#675FEB"/>
<path d="M23.6702 19.4502C24.6311 19.4502 25.4102 18.6712 25.4102 17.7102C25.4102 16.7492 24.6311 15.9702 23.6702 15.9702C22.7092 15.9702 21.9302 16.7492 21.9302 17.7102C21.9302 18.6712 22.7092 19.4502 23.6702 19.4502Z" fill="#675FEB"/>
<path d="M19.0203 22.2002C19.9812 22.2002 20.7603 21.4212 20.7603 20.4602C20.7603 19.4992 19.9812 18.7202 19.0203 18.7202C18.0593 18.7202 17.2803 19.4992 17.2803 20.4602C17.2803 21.4212 18.0593 22.2002 19.0203 22.2002Z" fill="#675FEB"/>
<path d="M14.3701 24.9502C15.3311 24.9502 16.1101 24.1712 16.1101 23.2102C16.1101 22.2492 15.3311 21.4702 14.3701 21.4702C13.4092 21.4702 12.6301 22.2492 12.6301 23.2102C12.6301 24.1712 13.4092 24.9502 14.3701 24.9502Z" fill="#675FEB"/>
<path d="M9.72 27.6902C10.6809 27.6902 11.46 26.9112 11.46 25.9502C11.46 24.9892 10.6809 24.2102 9.72 24.2102C8.759 24.2102 7.98 24.9892 7.98 25.9502C7.98 26.9112 8.759 27.6902 9.72 27.6902Z" fill="#675FEB"/>
<path d="M5.0702 29.5701C5.5507 29.5701 5.9402 29.1806 5.9402 28.7001C5.9402 28.2196 5.5507 27.8301 5.0702 27.8301C4.5897 27.8301 4.2002 28.2196 4.2002 28.7001C4.2002 29.1806 4.5897 29.5701 5.0702 29.5701Z" fill="#675FEB"/>
<path d="M0.419998 31.87C0.651898 31.87 0.84 31.682 0.84 31.45C0.84 31.2181 0.651898 31.03 0.419998 31.03C0.187998 31.03 0 31.2181 0 31.45C0 31.682 0.187998 31.87 0.419998 31.87Z" fill="#675FEB"/>
<path d="M23.6702 24.8701C24.6311 24.8701 25.4102 24.0911 25.4102 23.1301C25.4102 22.1692 24.6311 21.3901 23.6702 21.3901C22.7092 21.3901 21.9302 22.1692 21.9302 23.1301C21.9302 24.0911 22.7092 24.8701 23.6702 24.8701Z" fill="#675FEB"/>
<path d="M19.0203 27.6201C19.9812 27.6201 20.7603 26.8411 20.7603 25.8801C20.7603 24.9192 19.9812 24.1401 19.0203 24.1401C18.0593 24.1401 17.2803 24.9192 17.2803 25.8801C17.2803 26.8411 18.0593 27.6201 19.0203 27.6201Z" fill="#675FEB"/>
<path d="M14.3701 30.3601C15.3311 30.3601 16.1101 29.5811 16.1101 28.6201C16.1101 27.6592 15.3311 26.8801 14.3701 26.8801C13.4092 26.8801 12.6301 27.6592 12.6301 28.6201C12.6301 29.5811 13.4092 30.3601 14.3701 30.3601Z" fill="#675FEB"/>
<path d="M9.72 33.1101C10.6809 33.1101 11.46 32.3311 11.46 31.3701C11.46 30.4092 10.6809 29.6301 9.72 29.6301C8.759 29.6301 7.98 30.4092 7.98 31.3701C7.98 32.3311 8.759 33.1101 9.72 33.1101Z" fill="#675FEB"/>
<path d="M5.0702 34.99C5.5507 34.99 5.9402 34.6005 5.9402 34.12C5.9402 33.6395 5.5507 33.25 5.0702 33.25C4.5897 33.25 4.2002 33.6395 4.2002 34.12C4.2002 34.6005 4.5897 34.99 5.0702 34.99Z" fill="#675FEB"/>
<path d="M0.419998 37.2902C0.651898 37.2902 0.84 37.1022 0.84 36.8702C0.84 36.6382 0.651898 36.4502 0.419998 36.4502C0.187998 36.4502 0 36.6382 0 36.8702C0 37.1022 0.187998 37.2902 0.419998 37.2902Z" fill="#675FEB"/>
<path d="M23.67 29.4202C24.1505 29.4202 24.54 29.0307 24.54 28.5502C24.54 28.0697 24.1505 27.6802 23.67 27.6802C23.1896 27.6802 22.8 28.0697 22.8 28.5502C22.8 29.0307 23.1896 29.4202 23.67 29.4202Z" fill="#675FEB"/>
<path d="M19.0201 32.1602C19.5006 32.1602 19.8901 31.7706 19.8901 31.2902C19.8901 30.8097 19.5006 30.4202 19.0201 30.4202C18.5397 30.4202 18.1501 30.8097 18.1501 31.2902C18.1501 31.7706 18.5397 32.1602 19.0201 32.1602Z" fill="#675FEB"/>
<path d="M14.37 34.9102C14.8505 34.9102 15.24 34.5206 15.24 34.0402C15.24 33.5597 14.8505 33.1702 14.37 33.1702C13.8895 33.1702 13.5 33.5597 13.5 34.0402C13.5 34.5206 13.8895 34.9102 14.37 34.9102Z" fill="#675FEB"/>
<path d="M9.7201 37.6602C10.2006 37.6602 10.5901 37.2706 10.5901 36.7902C10.5901 36.3097 10.2006 35.9202 9.7201 35.9202C9.2396 35.9202 8.8501 36.3097 8.8501 36.7902C8.8501 37.2706 9.2396 37.6602 9.7201 37.6602Z" fill="#675FEB"/>
<path d="M5.0701 39.9601C5.3021 39.9601 5.4901 39.7721 5.4901 39.5401C5.4901 39.3082 5.3021 39.1201 5.0701 39.1201C4.8382 39.1201 4.6501 39.3082 4.6501 39.5401C4.6501 39.7721 4.8382 39.9601 5.0701 39.9601Z" fill="#675FEB"/>
<path d="M0.419998 42.7101C0.651898 42.7101 0.84 42.5221 0.84 42.2901C0.84 42.0582 0.651898 41.8701 0.419998 41.8701C0.187998 41.8701 0 42.0582 0 42.2901C0 42.5221 0.187998 42.7101 0.419998 42.7101Z" fill="#675FEB"/>
<path d="M23.67 34.38C23.9019 34.38 24.09 34.192 24.09 33.96C24.09 33.7281 23.9019 33.54 23.67 33.54C23.438 33.54 23.25 33.7281 23.25 33.96C23.25 34.192 23.438 34.38 23.67 34.38Z" fill="#675FEB"/>
<path d="M19.0201 37.13C19.2521 37.13 19.4401 36.942 19.4401 36.71C19.4401 36.4781 19.2521 36.29 19.0201 36.29C18.7882 36.29 18.6001 36.4781 18.6001 36.71C18.6001 36.942 18.7882 37.13 19.0201 37.13Z" fill="#675FEB"/>
<path d="M14.3702 39.88C14.6022 39.88 14.7902 39.692 14.7902 39.46C14.7902 39.2281 14.6022 39.04 14.3702 39.04C14.1382 39.04 13.9502 39.2281 13.9502 39.46C13.9502 39.692 14.1382 39.88 14.3702 39.88Z" fill="#675FEB"/>
<path d="M9.72 42.63C9.952 42.63 10.14 42.442 10.14 42.21C10.14 41.9781 9.952 41.79 9.72 41.79C9.4881 41.79 9.3 41.9781 9.3 42.21C9.3 42.442 9.4881 42.63 9.72 42.63Z" fill="#675FEB"/>
<path d="M5.0701 45.38C5.3021 45.38 5.4901 45.192 5.4901 44.96C5.4901 44.7281 5.3021 44.54 5.0701 44.54C4.8382 44.54 4.6501 44.7281 4.6501 44.96C4.6501 45.192 4.8382 45.38 5.0701 45.38Z" fill="#675FEB"/>
<path d="M23.67 39.8002C23.9019 39.8002 24.09 39.6122 24.09 39.3802C24.09 39.1482 23.9019 38.9602 23.67 38.9602C23.438 38.9602 23.25 39.1482 23.25 39.3802C23.25 39.6122 23.438 39.8002 23.67 39.8002Z" fill="#675FEB"/>
<path d="M19.0201 42.5502C19.2521 42.5502 19.4401 42.3622 19.4401 42.1302C19.4401 41.8982 19.2521 41.7102 19.0201 41.7102C18.7882 41.7102 18.6001 41.8982 18.6001 42.1302C18.6001 42.3622 18.7882 42.5502 19.0201 42.5502Z" fill="#675FEB"/>
<path d="M14.3702 45.3002C14.6022 45.3002 14.7902 45.1122 14.7902 44.8802C14.7902 44.6482 14.6022 44.4602 14.3702 44.4602C14.1382 44.4602 13.9502 44.6482 13.9502 44.8802C13.9502 45.1122 14.1382 45.3002 14.3702 45.3002Z" fill="#675FEB"/>
<path d="M9.72 48.0502C9.952 48.0502 10.14 47.8622 10.14 47.6302C10.14 47.3982 9.952 47.2102 9.72 47.2102C9.4881 47.2102 9.3 47.3982 9.3 47.6302C9.3 47.8622 9.4881 48.0502 9.72 48.0502Z" fill="#675FEB"/>
<path d="M23.67 45.2201C23.9019 45.2201 24.09 45.0321 24.09 44.8001C24.09 44.5682 23.9019 44.3801 23.67 44.3801C23.438 44.3801 23.25 44.5682 23.25 44.8001C23.25 45.0321 23.438 45.2201 23.67 45.2201Z" fill="#675FEB"/>
<path d="M19.0201 47.9701C19.2521 47.9701 19.4401 47.7821 19.4401 47.5501C19.4401 47.3182 19.2521 47.1301 19.0201 47.1301C18.7882 47.1301 18.6001 47.3182 18.6001 47.5501C18.6001 47.7821 18.7882 47.9701 19.0201 47.9701Z" fill="#675FEB"/>
<path d="M14.3702 50.7201C14.6022 50.7201 14.7902 50.5321 14.7902 50.3001C14.7902 50.0682 14.6022 49.8801 14.3702 49.8801C14.1382 49.8801 13.9502 50.0682 13.9502 50.3001C13.9502 50.5321 14.1382 50.7201 14.3702 50.7201Z" fill="#675FEB"/>
<path d="M23.67 50.64C23.9019 50.64 24.09 50.452 24.09 50.22C24.09 49.9881 23.9019 49.8 23.67 49.8C23.438 49.8 23.25 49.9881 23.25 50.22C23.25 50.452 23.438 50.64 23.67 50.64Z" fill="#675FEB"/>
<path d="M19.0201 53.39C19.2521 53.39 19.4401 53.202 19.4401 52.97C19.4401 52.7381 19.2521 52.55 19.0201 52.55C18.7882 52.55 18.6001 52.7381 18.6001 52.97C18.6001 53.202 18.7882 53.39 19.0201 53.39Z" fill="#675FEB"/>
<path d="M23.67 56.0602C23.9019 56.0602 24.09 55.8722 24.09 55.6402C24.09 55.4083 23.9019 55.2202 23.67 55.2202C23.438 55.2202 23.25 55.4083 23.25 55.6402C23.25 55.8722 23.438 56.0602 23.67 56.0602Z" fill="#675FEB"/>
<path d="M46.86 15.61C47.0919 15.61 47.28 15.422 47.28 15.19C47.28 14.9581 47.0919 14.77 46.86 14.77C46.628 14.77 46.4399 14.9581 46.4399 15.19C46.4399 15.422 46.628 15.61 46.86 15.61Z" fill="#675FEB"/>
<path d="M37.5501 15.5402C37.7821 15.5402 37.9701 15.3522 37.9701 15.1202C37.9701 14.8882 37.7821 14.7002 37.5501 14.7002C37.3182 14.7002 37.1301 14.8882 37.1301 15.1202C37.1301 15.3522 37.3182 15.5402 37.5501 15.5402Z" fill="#675FEB"/>
<path d="M42.2101 18.2802C42.442 18.2802 42.63 18.0921 42.63 17.8602C42.63 17.6282 42.442 17.4402 42.2101 17.4402C41.9781 17.4402 41.79 17.6282 41.79 17.8602C41.79 18.0921 41.9781 18.2802 42.2101 18.2802Z" fill="#675FEB"/>
<path d="M46.86 21.0302C47.0919 21.0302 47.28 20.8421 47.28 20.6102C47.28 20.3782 47.0919 20.1902 46.86 20.1902C46.628 20.1902 46.4399 20.3782 46.4399 20.6102C46.4399 20.8421 46.628 21.0302 46.86 21.0302Z" fill="#675FEB"/>
<path d="M23.6 13.1602C24.0805 13.1602 24.47 12.7706 24.47 12.2902C24.47 11.8097 24.0805 11.4202 23.6 11.4202C23.1195 11.4202 22.73 11.8097 22.73 12.2902C22.73 12.7706 23.1195 13.1602 23.6 13.1602Z" fill="#675FEB"/>
<path d="M28.2502 15.9102C28.7306 15.9102 29.1201 15.5206 29.1201 15.0402C29.1201 14.5597 28.7306 14.1702 28.2502 14.1702C27.7697 14.1702 27.3801 14.5597 27.3801 15.0402C27.3801 15.5206 27.7697 15.9102 28.2502 15.9102Z" fill="#675FEB"/>
<path d="M32.9003 18.6602C33.3808 18.6602 33.7703 18.2706 33.7703 17.7902C33.7703 17.3097 33.3808 16.9202 32.9003 16.9202C32.4198 16.9202 32.0303 17.3097 32.0303 17.7902C32.0303 18.2706 32.4198 18.6602 32.9003 18.6602Z" fill="#675FEB"/>
<path d="M37.5502 21.4102C38.0307 21.4102 38.4202 21.0206 38.4202 20.5402C38.4202 20.0597 38.0307 19.6702 37.5502 19.6702C37.0697 19.6702 36.6802 20.0597 36.6802 20.5402C36.6802 21.0206 37.0697 21.4102 37.5502 21.4102Z" fill="#675FEB"/>
<path d="M42.2101 24.1502C42.6906 24.1502 43.0801 23.7606 43.0801 23.2802C43.0801 22.7997 42.6906 22.4102 42.2101 22.4102C41.7296 22.4102 41.3401 22.7997 41.3401 23.2802C41.3401 23.7606 41.7296 24.1502 42.2101 24.1502Z" fill="#675FEB"/>
<path d="M46.86 26.4501C47.0919 26.4501 47.28 26.2621 47.28 26.0301C47.28 25.7981 47.0919 25.6101 46.86 25.6101C46.628 25.6101 46.4399 25.7981 46.4399 26.0301C46.4399 26.2621 46.628 26.4501 46.86 26.4501Z" fill="#675FEB"/>
<path d="M23.6001 19.4502C24.5611 19.4502 25.3401 18.6712 25.3401 17.7102C25.3401 16.7492 24.5611 15.9702 23.6001 15.9702C22.6391 15.9702 21.8601 16.7492 21.8601 17.7102C21.8601 18.6712 22.6391 19.4502 23.6001 19.4502Z" fill="#675FEB"/>
<path d="M28.2503 22.2002C29.2113 22.2002 29.9903 21.4212 29.9903 20.4602C29.9903 19.4992 29.2113 18.7202 28.2503 18.7202C27.2893 18.7202 26.5103 19.4992 26.5103 20.4602C26.5103 21.4212 27.2893 22.2002 28.2503 22.2002Z" fill="#675FEB"/>
<path d="M32.9002 24.9502C33.8612 24.9502 34.6402 24.1712 34.6402 23.2102C34.6402 22.2492 33.8612 21.4702 32.9002 21.4702C31.9392 21.4702 31.1602 22.2492 31.1602 23.2102C31.1602 24.1712 31.9392 24.9502 32.9002 24.9502Z" fill="#675FEB"/>
<path d="M37.55 27.6902C38.511 27.6902 39.29 26.9112 39.29 25.9502C39.29 24.9892 38.511 24.2102 37.55 24.2102C36.5891 24.2102 35.8101 24.9892 35.8101 25.9502C35.8101 26.9112 36.5891 27.6902 37.55 27.6902Z" fill="#675FEB"/>
<path d="M42.2101 29.5701C42.6906 29.5701 43.0801 29.1806 43.0801 28.7001C43.0801 28.2196 42.6906 27.8301 42.2101 27.8301C41.7296 27.8301 41.3401 28.2196 41.3401 28.7001C41.3401 29.1806 41.7296 29.5701 42.2101 29.5701Z" fill="#675FEB"/>
<path d="M46.86 31.87C47.0919 31.87 47.28 31.682 47.28 31.45C47.28 31.2181 47.0919 31.03 46.86 31.03C46.628 31.03 46.4399 31.2181 46.4399 31.45C46.4399 31.682 46.628 31.87 46.86 31.87Z" fill="#675FEB"/>
<path d="M23.6001 24.8701C24.5611 24.8701 25.3401 24.0911 25.3401 23.1301C25.3401 22.1692 24.5611 21.3901 23.6001 21.3901C22.6391 21.3901 21.8601 22.1692 21.8601 23.1301C21.8601 24.0911 22.6391 24.8701 23.6001 24.8701Z" fill="#675FEB"/>
<path d="M28.2503 27.6201C29.2113 27.6201 29.9903 26.8411 29.9903 25.8801C29.9903 24.9192 29.2113 24.1401 28.2503 24.1401C27.2893 24.1401 26.5103 24.9192 26.5103 25.8801C26.5103 26.8411 27.2893 27.6201 28.2503 27.6201Z" fill="#675FEB"/>
<path d="M32.9002 30.3601C33.8612 30.3601 34.6402 29.5811 34.6402 28.6201C34.6402 27.6592 33.8612 26.8801 32.9002 26.8801C31.9392 26.8801 31.1602 27.6592 31.1602 28.6201C31.1602 29.5811 31.9392 30.3601 32.9002 30.3601Z" fill="#675FEB"/>
<path d="M37.55 33.1101C38.511 33.1101 39.29 32.3311 39.29 31.3701C39.29 30.4092 38.511 29.6301 37.55 29.6301C36.5891 29.6301 35.8101 30.4092 35.8101 31.3701C35.8101 32.3311 36.5891 33.1101 37.55 33.1101Z" fill="#675FEB"/>
<path d="M42.2101 34.99C42.6906 34.99 43.0801 34.6005 43.0801 34.12C43.0801 33.6395 42.6906 33.25 42.2101 33.25C41.7296 33.25 41.3401 33.6395 41.3401 34.12C41.3401 34.6005 41.7296 34.99 42.2101 34.99Z" fill="#675FEB"/>
<path d="M46.86 37.2902C47.0919 37.2902 47.28 37.1022 47.28 36.8702C47.28 36.6382 47.0919 36.4502 46.86 36.4502C46.628 36.4502 46.4399 36.6382 46.4399 36.8702C46.4399 37.1022 46.628 37.2902 46.86 37.2902Z" fill="#675FEB"/>
<path d="M23.6 29.4202C24.0805 29.4202 24.47 29.0307 24.47 28.5502C24.47 28.0697 24.0805 27.6802 23.6 27.6802C23.1195 27.6802 22.73 28.0697 22.73 28.5502C22.73 29.0307 23.1195 29.4202 23.6 29.4202Z" fill="#675FEB"/>
<path d="M28.2502 32.1602C28.7306 32.1602 29.1201 31.7706 29.1201 31.2902C29.1201 30.8097 28.7306 30.4202 28.2502 30.4202C27.7697 30.4202 27.3801 30.8097 27.3801 31.2902C27.3801 31.7706 27.7697 32.1602 28.2502 32.1602Z" fill="#675FEB"/>
<path d="M32.9003 34.9102C33.3808 34.9102 33.7703 34.5206 33.7703 34.0402C33.7703 33.5597 33.3808 33.1702 32.9003 33.1702C32.4198 33.1702 32.0303 33.5597 32.0303 34.0402C32.0303 34.5206 32.4198 34.9102 32.9003 34.9102Z" fill="#675FEB"/>
<path d="M37.5502 37.6602C38.0307 37.6602 38.4202 37.2706 38.4202 36.7902C38.4202 36.3097 38.0307 35.9202 37.5502 35.9202C37.0697 35.9202 36.6802 36.3097 36.6802 36.7902C36.6802 37.2706 37.0697 37.6602 37.5502 37.6602Z" fill="#675FEB"/>
<path d="M42.2101 39.9601C42.442 39.9601 42.63 39.7721 42.63 39.5401C42.63 39.3082 42.442 39.1201 42.2101 39.1201C41.9781 39.1201 41.79 39.3082 41.79 39.5401C41.79 39.7721 41.9781 39.9601 42.2101 39.9601Z" fill="#675FEB"/>
<path d="M46.86 42.7101C47.0919 42.7101 47.28 42.5221 47.28 42.2901C47.28 42.0582 47.0919 41.8701 46.86 41.8701C46.628 41.8701 46.4399 42.0582 46.4399 42.2901C46.4399 42.5221 46.628 42.7101 46.86 42.7101Z" fill="#675FEB"/>
<path d="M23.6002 34.38C23.8321 34.38 24.0202 34.192 24.0202 33.96C24.0202 33.7281 23.8321 33.54 23.6002 33.54C23.3682 33.54 23.1802 33.7281 23.1802 33.96C23.1802 34.192 23.3682 34.38 23.6002 34.38Z" fill="#675FEB"/>
<path d="M28.2501 37.13C28.4821 37.13 28.6701 36.942 28.6701 36.71C28.6701 36.4781 28.4821 36.29 28.2501 36.29C28.0181 36.29 27.8301 36.4781 27.8301 36.71C27.8301 36.942 28.0181 37.13 28.2501 37.13Z" fill="#675FEB"/>
<path d="M32.9 39.88C33.132 39.88 33.32 39.692 33.32 39.46C33.32 39.2281 33.132 39.04 32.9 39.04C32.668 39.04 32.48 39.2281 32.48 39.46C32.48 39.692 32.668 39.88 32.9 39.88Z" fill="#675FEB"/>
<path d="M37.5501 42.63C37.7821 42.63 37.9701 42.442 37.9701 42.21C37.9701 41.9781 37.7821 41.79 37.5501 41.79C37.3182 41.79 37.1301 41.9781 37.1301 42.21C37.1301 42.442 37.3182 42.63 37.5501 42.63Z" fill="#675FEB"/>
<path d="M42.2101 45.38C42.442 45.38 42.63 45.192 42.63 44.96C42.63 44.7281 42.442 44.54 42.2101 44.54C41.9781 44.54 41.79 44.7281 41.79 44.96C41.79 45.192 41.9781 45.38 42.2101 45.38Z" fill="#675FEB"/>
<path d="M23.6002 39.8002C23.8321 39.8002 24.0202 39.6122 24.0202 39.3802C24.0202 39.1482 23.8321 38.9602 23.6002 38.9602C23.3682 38.9602 23.1802 39.1482 23.1802 39.3802C23.1802 39.6122 23.3682 39.8002 23.6002 39.8002Z" fill="#675FEB"/>
<path d="M28.2501 42.5502C28.4821 42.5502 28.6701 42.3622 28.6701 42.1302C28.6701 41.8982 28.4821 41.7102 28.2501 41.7102C28.0181 41.7102 27.8301 41.8982 27.8301 42.1302C27.8301 42.3622 28.0181 42.5502 28.2501 42.5502Z" fill="#675FEB"/>
<path d="M32.9 45.3002C33.132 45.3002 33.32 45.1122 33.32 44.8802C33.32 44.6482 33.132 44.4602 32.9 44.4602C32.668 44.4602 32.48 44.6482 32.48 44.8802C32.48 45.1122 32.668 45.3002 32.9 45.3002Z" fill="#675FEB"/>
<path d="M37.5501 48.0502C37.7821 48.0502 37.9701 47.8622 37.9701 47.6302C37.9701 47.3982 37.7821 47.2102 37.5501 47.2102C37.3182 47.2102 37.1301 47.3982 37.1301 47.6302C37.1301 47.8622 37.3182 48.0502 37.5501 48.0502Z" fill="#675FEB"/>
<path d="M23.6002 45.2201C23.8321 45.2201 24.0202 45.0321 24.0202 44.8001C24.0202 44.5682 23.8321 44.3801 23.6002 44.3801C23.3682 44.3801 23.1802 44.5682 23.1802 44.8001C23.1802 45.0321 23.3682 45.2201 23.6002 45.2201Z" fill="#675FEB"/>
<path d="M28.2501 47.9701C28.4821 47.9701 28.6701 47.7821 28.6701 47.5501C28.6701 47.3182 28.4821 47.1301 28.2501 47.1301C28.0181 47.1301 27.8301 47.3182 27.8301 47.5501C27.8301 47.7821 28.0181 47.9701 28.2501 47.9701Z" fill="#675FEB"/>
<path d="M32.9 50.7201C33.132 50.7201 33.32 50.5321 33.32 50.3001C33.32 50.0682 33.132 49.8801 32.9 49.8801C32.668 49.8801 32.48 50.0682 32.48 50.3001C32.48 50.5321 32.668 50.7201 32.9 50.7201Z" fill="#675FEB"/>
<path d="M23.6002 50.64C23.8321 50.64 24.0202 50.452 24.0202 50.22C24.0202 49.9881 23.8321 49.8 23.6002 49.8C23.3682 49.8 23.1802 49.9881 23.1802 50.22C23.1802 50.452 23.3682 50.64 23.6002 50.64Z" fill="#675FEB"/>
<path d="M28.2501 53.39C28.4821 53.39 28.6701 53.202 28.6701 52.97C28.6701 52.7381 28.4821 52.55 28.2501 52.55C28.0181 52.55 27.8301 52.7381 27.8301 52.97C27.8301 53.202 28.0181 53.39 28.2501 53.39Z" fill="#675FEB"/>
<path d="M23.6002 56.0602C23.8321 56.0602 24.0202 55.8722 24.0202 55.6402C24.0202 55.4083 23.8321 55.2202 23.6002 55.2202C23.3682 55.2202 23.1802 55.4083 23.1802 55.6402C23.1802 55.8722 23.3682 56.0602 23.6002 56.0602Z" fill="#675FEB"/>
<path d="M23.1202 0.84C23.3521 0.84 23.5402 0.651998 23.5402 0.419998C23.5402 0.188098 23.3521 0 23.1202 0C22.8882 0 22.7002 0.188098 22.7002 0.419998C22.7002 0.651998 22.8882 0.84 23.1202 0.84Z" fill="#675FEB"/>
<path d="M18.4701 3.59C18.702 3.59 18.89 3.402 18.89 3.17C18.89 2.9381 18.702 2.75 18.4701 2.75C18.2381 2.75 18.05 2.9381 18.05 3.17C18.05 3.402 18.2381 3.59 18.4701 3.59Z" fill="#675FEB"/>
<path d="M13.8199 6.34C14.0519 6.34 14.2399 6.152 14.2399 5.92C14.2399 5.6881 14.0519 5.5 13.8199 5.5C13.588 5.5 13.3999 5.6881 13.3999 5.92C13.3999 6.152 13.588 6.34 13.8199 6.34Z" fill="#675FEB"/>
<path d="M9.17 9.09C9.4019 9.09 9.59 8.902 9.59 8.67C9.59 8.4381 9.4019 8.25 9.17 8.25C8.938 8.25 8.75 8.4381 8.75 8.67C8.75 8.902 8.938 9.09 9.17 9.09Z" fill="#675FEB"/>
<path d="M4.5201 11.84C4.752 11.84 4.9401 11.652 4.9401 11.42C4.9401 11.1881 4.752 11 4.5201 11C4.2881 11 4.1001 11.1881 4.1001 11.42C4.1001 11.652 4.2881 11.84 4.5201 11.84Z" fill="#675FEB"/>
<path d="M23.1202 6.2602C23.3521 6.2602 23.5402 6.0721 23.5402 5.8402C23.5402 5.6082 23.3521 5.4202 23.1202 5.4202C22.8882 5.4202 22.7002 5.6082 22.7002 5.8402C22.7002 6.0721 22.8882 6.2602 23.1202 6.2602Z" fill="#675FEB"/>
<path d="M18.4701 9.0102C18.702 9.0102 18.89 8.8221 18.89 8.5902C18.89 8.3582 18.702 8.1702 18.4701 8.1702C18.2381 8.1702 18.05 8.3582 18.05 8.5902C18.05 8.8221 18.2381 9.0102 18.4701 9.0102Z" fill="#675FEB"/>
<path d="M13.8199 11.7602C14.0519 11.7602 14.2399 11.5721 14.2399 11.3402C14.2399 11.1082 14.0519 10.9202 13.8199 10.9202C13.588 10.9202 13.3999 11.1082 13.3999 11.3402C13.3999 11.5721 13.588 11.7602 13.8199 11.7602Z" fill="#675FEB"/>
<path d="M23.0501 0.84C23.2821 0.84 23.4701 0.651998 23.4701 0.419998C23.4701 0.188098 23.2821 0 23.0501 0C22.8182 0 22.6301 0.188098 22.6301 0.419998C22.6301 0.651998 22.8182 0.84 23.0501 0.84Z" fill="#675FEB"/>
<path d="M27.7 3.59C27.932 3.59 28.12 3.402 28.12 3.17C28.12 2.9381 27.932 2.75 27.7 2.75C27.4681 2.75 27.28 2.9381 27.28 3.17C27.28 3.402 27.4681 3.59 27.7 3.59Z" fill="#675FEB"/>
<path d="M32.3502 6.34C32.5821 6.34 32.7702 6.152 32.7702 5.92C32.7702 5.6881 32.5821 5.5 32.3502 5.5C32.1182 5.5 31.9302 5.6881 31.9302 5.92C31.9302 6.152 32.1182 6.34 32.3502 6.34Z" fill="#675FEB"/>
<path d="M37.0001 9.09C37.2321 9.09 37.4201 8.902 37.4201 8.67C37.4201 8.4381 37.2321 8.25 37.0001 8.25C36.7681 8.25 36.5801 8.4381 36.5801 8.67C36.5801 8.902 36.7681 9.09 37.0001 9.09Z" fill="#675FEB"/>
<path d="M41.66 11.84C41.892 11.84 42.08 11.652 42.08 11.42C42.08 11.1881 41.892 11 41.66 11C41.428 11 41.24 11.1881 41.24 11.42C41.24 11.652 41.428 11.84 41.66 11.84Z" fill="#675FEB"/>
<path d="M23.0501 6.2602C23.2821 6.2602 23.4701 6.0721 23.4701 5.8402C23.4701 5.6082 23.2821 5.4202 23.0501 5.4202C22.8182 5.4202 22.6301 5.6082 22.6301 5.8402C22.6301 6.0721 22.8182 6.2602 23.0501 6.2602Z" fill="#675FEB"/>
<path d="M27.7 9.0102C27.932 9.0102 28.12 8.8221 28.12 8.5902C28.12 8.3582 27.932 8.1702 27.7 8.1702C27.4681 8.1702 27.28 8.3582 27.28 8.5902C27.28 8.8221 27.4681 9.0102 27.7 9.0102Z" fill="#675FEB"/>
<path d="M32.3502 11.7602C32.5821 11.7602 32.7702 11.5721 32.7702 11.3402C32.7702 11.1082 32.5821 10.9202 32.3502 10.9202C32.1182 10.9202 31.9302 11.1082 31.9302 11.3402C31.9302 11.5721 32.1182 11.7602 32.3502 11.7602Z" fill="#675FEB"/>
</svg>
